<?xml version="1.0" encoding="UTF-8" standalone="no"?>
<!-- Generator: Adobe Illustrator 16.0.3, SVG Export Plug-In . SVG Version: 6.00 Build 0)  -->

<svg
   xmlns:dc="http://purl.org/dc/elements/1.1/"
   xmlns:cc="http://creativecommons.org/ns#"
   xmlns:rdf="http://www.w3.org/1999/02/22-rdf-syntax-ns#"
   xmlns:svg="http://www.w3.org/2000/svg"
   xmlns="http://www.w3.org/2000/svg"
   xmlns:sodipodi="http://sodipodi.sourceforge.net/DTD/sodipodi-0.dtd"
   xmlns:inkscape="http://www.inkscape.org/namespaces/inkscape"
   version="1.1"
   id="Ebene_1"
   x="0px"
   y="0px"
   width="44px"
   height="150px"
   viewBox="0 0 44 150"
   style="enable-background:new 0 0 44 150;"
   xml:space="preserve"
   inkscape:version="0.91 r13725"
   sodipodi:docname="fh-logo-right-without-white.svg"><metadata
     id="metadata21"><rdf:RDF><cc:Work
         rdf:about=""><dc:format>image/svg+xml</dc:format><dc:type
           rdf:resource="http://purl.org/dc/dcmitype/StillImage" /></cc:Work></rdf:RDF></metadata><defs
     id="defs19" /><sodipodi:namedview
     pagecolor="#ffffff"
     bordercolor="#666666"
     borderopacity="1"
     objecttolerance="10"
     gridtolerance="10"
     guidetolerance="10"
     inkscape:pageopacity="0"
     inkscape:pageshadow="2"
     inkscape:window-width="2048"
     inkscape:window-height="1089"
     id="namedview17"
     showgrid="false"
     inkscape:zoom="6.2933333"
     inkscape:cx="-18.383831"
     inkscape:cy="67.421473"
     inkscape:window-x="-8"
     inkscape:window-y="-8"
     inkscape:window-maximized="1"
     inkscape:current-layer="Ebene_1" /><style
     type="text/css"
     id="style3"><![CDATA[
	.st0{fill:#1D1D1B;}
	.st1{fill:#FFFFFF;}
	.st2{fill:#01B0AC;}
]]></style><rect
     style="fill:#01b0ac"
     id="rect7"
     height="49.330078"
     width="16.443359"
     class="st2"
     y="1"
     x="27.921875" /><rect
     style="fill:#ffffff;fill-opacity:0"
     id="rect9"
     height="49.330078"
     width="16.443359"
     class="st1"
     y="50.330078"
     x="27.921875" /><rect
     style="fill:#1d1d1b"
     id="rect11"
     height="49.330078"
     width="16.443359"
     class="st0"
     y="99.660156"
     x="27.921875" /><path
     style="fill:#1d1d1b"
     inkscape:connector-curvature="0"
     id="path13"
     d="m 16.076172,1.0292969 c -2.328125,0 -1.519531,3.4697266 -3.234375,3.4697266 -0.638672,0 -1.205078,-0.4399414 -1.205078,-1.5561523 0,-0.5839844 0.125,-1.0786133 0.339844,-1.5908203 L 11.447266,1.2441407 c -0.22461,0.4760742 -0.359375,1.0688477 -0.359375,1.7260742 0,1.4477539 0.773437,2.0947266 1.789062,2.0947266 2.222657,0 1.429688,-3.4609375 3.236328,-3.4609375 0.873047,0 1.396485,0.5478516 1.396485,1.6181641 0,0.7099609 -0.181641,1.2856445 -0.521485,1.8081055 l 0.556641,0.1069336 C 17.859375,4.625 18.066406,3.9960938 18.066406,3.222168 18.064453,1.7841797 17.308594,1.0292969 16.076172,1.0292969 m 1.304687,8.7358398 -2.724609,0 0,-2.9580078 -0.505859,0 0,2.9580078 -2.396485,0 0,-3.4169922 -0.560547,0.025879 0,3.9750975 6.744141,0 0,-4.1362303 -0.556641,-0.026855 0,3.5791016 z m -5.970703,1.8779293 c -0.169922,0.351075 -0.324218,1.006836 -0.324218,1.573731 0,1.959961 1.044921,2.841308 3.408203,2.841308 2.482421,0 3.570312,-0.863281 3.570312,-2.823242 0,-0.603027 -0.191406,-1.222656 -0.40625,-1.627929 l -0.511719,0.100097 c 0.216797,0.403809 0.351563,0.890137 0.351563,1.456055 0,1.556152 -0.71875,2.285156 -3.003906,2.285156 -2.138672,0 -2.839844,-0.720214 -2.839844,-2.257324 0,-0.558105 0.134765,-1.098144 0.304687,-1.46582 l -0.548828,-0.08203 z m 6.529297,5.839844 -6.74414,0 0,0.53125 4.972656,-0.0093 0.71875,-0.01807 0.0078,0.01807 -0.611328,0.395996 -5.08789,3.37207 0,0.583985 6.74414,0 0,-0.540039 -5.089844,0 -0.728515,0.01025 -0.0098,-0.01807 0.611328,-0.395996 5.216797,-3.489258 0,-0.440918 z m -0.558594,9.734863 -2.724609,0 0,-2.956543 -0.505859,0 0,2.956543 -2.396485,0 0,-3.41455 -0.560547,0.02686 0,3.973145 6.744141,0 0,-4.136231 -0.556641,-0.02588 0,3.57666 z m 0.558594,2.341309 -6.74414,0 0,0.59375 6.74414,0 0,-0.59375 z m -6.529297,1.947754 c -0.169922,0.351074 -0.324218,1.007324 -0.324218,1.574219 0,1.959961 1.044921,2.839843 3.408203,2.839843 2.482421,0 3.570312,-0.862793 3.570312,-2.822753 0,-0.603028 -0.191406,-1.223145 -0.40625,-1.626954 l -0.511719,0.09863 c 0.216797,0.404297 0.351563,0.890137 0.351563,1.456055 0,1.556152 -0.71875,2.28418 -3.003906,2.28418 -2.138672,0 -2.839844,-0.719239 -2.839844,-2.25586 0,-0.559082 0.134765,-1.098144 0.304687,-1.467285 l -0.548828,-0.08008 z m 4.666016,5.451172 c -2.328125,0 -1.519531,3.470215 -3.234375,3.470215 -0.638672,0 -1.205078,-0.439942 -1.205078,-1.555176 0,-0.584961 0.125,-1.080078 0.339844,-1.591797 l -0.529297,-0.107422 c -0.22461,0.476074 -0.359375,1.069336 -0.359375,1.726074 0,1.447266 0.773437,2.095215 1.789062,2.095215 2.222657,0 1.429688,-3.461914 3.236328,-3.461914 0.873047,0 1.396485,0.547851 1.396485,1.618652 0,0.708985 -0.181641,1.285156 -0.521485,1.807129 l 0.556641,0.10791 c 0.314453,-0.512695 0.521484,-1.143066 0.521484,-1.915039 -0.002,-1.438964 -0.757812,-2.193847 -1.990234,-2.193847 m -1.535156,8.567871 c 2.228515,0 2.830078,0.737305 2.830078,2.221191 l 0,1.602051 -5.59961,0 0,-1.592285 c 0,-1.564942 0.638672,-2.230957 2.769532,-2.230957 m 0,-0.618652 c -2.392578,0 -3.345703,0.84375 -3.345703,2.832031 l 0,2.20166 6.74414,0 0,-2.210937 c 0,-1.916016 -0.9375,-2.822754 -3.398437,-2.822754 m 2.839843,9.896972 -2.724609,0 0,-2.958984 -0.505859,0 0,2.958984 -2.396485,0 0,-3.416992 -0.560547,0.02588 0,3.975098 6.744141,0 0,-4.136231 -0.556641,-0.02685 0,3.579101 z m 0.558594,2.338867 -6.74414,0 0,0.594239 6.74414,0 0,-0.594239 z m -0.576172,5.169922 -6.167968,0 0,0.593262 6.74414,0 0,-3.910156 -0.576172,-0.02832 0,3.345215 z m -4.164062,2.479981 c 1.142578,0 1.501953,0.539062 1.501953,1.59082 l 0,1.555176 -2.974609,0 0,-1.555176 c 0,-1.078613 0.394531,-1.59082 1.472656,-1.59082 m 0,-0.603028 c -1.410156,0 -2.003906,0.665039 -2.003906,2.193848 l 0,2.149414 6.74414,0 0,-0.594238 -2.726562,0 0,-1.555176 c 0,-1.546875 -0.65625,-2.193848 -2.013672,-2.193848 m 0,6.229004 c 1.142578,0 1.501953,0.540039 1.501953,1.590821 l 0,1.556152 -2.974609,0 0,-1.556152 c 0,-1.077637 0.394531,-1.590821 1.472656,-1.590821 m 0,-0.60205 c -1.410156,0 -2.003906,0.666015 -2.003906,2.194335 l 0,2.148926 6.74414,0 0,-0.594238 -2.726562,0 0,-1.556152 c 0,-1.545899 -0.65625,-2.192871 -2.013672,-2.192871 m -1.5625,8.433105 0,-0.0293 0.689453,-0.224609 3.300781,-1.175782 0,2.855469 L 12.326172,78.482422 11.636719,78.25 Z m 6.302734,-2.259766 0,-0.664062 -6.74414,2.564453 0,0.697266 6.74414,2.564453 0,-0.638672 -1.78125,-0.638672 0,-3.248047 1.78125,-0.636719 z m -6.167969,8.44336 -0.576171,0.01953 0,3.972656 6.74414,0 0,-0.59375 -3.191406,0 0,-2.859375 -0.541016,0 0,2.859375 -2.435547,0 0,-3.398437 z m 2.794922,6.048828 c 2.267578,0 2.923828,0.585937 2.923828,2.070312 0,1.492188 -0.65625,2.085938 -2.923828,2.085938 -2.273437,0 -2.912109,-0.59375 -2.912109,-2.076172 0,-1.494141 0.638672,-2.080078 2.912109,-2.080078 m 0,-0.607422 c -2.5,0 -3.480468,0.728516 -3.480468,2.6875 0,1.951172 0.980468,2.6875 3.480468,2.6875 2.5,0 3.498047,-0.744141 3.498047,-2.6875 0,-1.960938 -0.990234,-2.6875 -3.498047,-2.6875 m -3.371093,14.33008 4.378906,-2.39063 2.365234,0 0,-0.60351 -2.365234,0 -4.378906,-2.363284 0,0.664063 3.15625,1.664061 0.644531,0.3125 0,0.0293 -0.644531,0.32226 -3.15625,1.67188 0,0.69336 z m 0.576171,0.69336 -0.576171,0.01 0,4.80078 0.576171,0.0176 0,-2.11133 6.167969,0 0,-0.59375 -6.167969,0 0,-2.12304 z m 6.167969,5.92578 -6.74414,0 0,0.59375 6.74414,0 0,-0.59375 z m -1.863281,1.82617 c -2.328125,0 -1.519531,3.47266 -3.234375,3.47266 -0.638672,0 -1.205078,-0.44141 -1.205078,-1.5586 0,-0.58398 0.125,-1.07812 0.339844,-1.59179 l -0.529297,-0.10547 c -0.22461,0.47656 -0.359375,1.06836 -0.359375,1.72656 0,1.44922 0.773437,2.09375 1.789062,2.09375 2.222657,0 1.429688,-3.46094 3.236328,-3.46094 0.873047,0 1.396485,0.54883 1.396485,1.61914 0,0.70899 -0.181641,1.28516 -0.521485,1.80664 l 0.556641,0.10743 c 0.314453,-0.51172 0.521484,-1.14063 0.521484,-1.91407 -0.002,-1.43945 -0.757812,-2.19531 -1.990234,-2.19531 m -3.029297,5.93945 c 0.978516,0 1.376953,0.44141 1.376953,1.42188 l 0,1.53711 -2.697265,0 0,-1.5918 c 0,-0.94336 0.375,-1.36719 1.320312,-1.36719 m -0.02539,-0.61132 c -1.232421,0 -1.826171,0.61914 -1.826171,1.97851 l 0,2.18555 6.74414,0 0,-0.59375 -3.03125,0 0,-1.56445 3.03125,-1.72657 0,-0.71875 -3.138672,1.87891 c -0.109375,-0.93555 -0.685547,-1.43945 -1.779297,-1.43945 m 4.359375,8.9375 -2.724609,0 0,-2.95899 -0.505859,0 0,2.95899 -2.396485,0 0,-3.41797 -0.560547,0.0273 0,3.97461 6.744141,0 0,-4.13672 -0.558594,-0.0254 0,3.57813 0.002,0 z m -6.185546,2.30273 5.49414,1.92383 0.681641,0.22656 0,0.0254 -0.691407,0.22656 -5.484375,1.92383 0,0.65625 6.744141,-2.45703 0,-0.68945 -6.744141,-2.45508 0,0.61914 10e-7,0 z m 6.74414,6.12695 -6.74414,0 0,0.5918 6.74414,0 0,-0.5918 z m 0,2.27149 -6.74414,0 0,0.53125 4.972656,-0.0117 0.71875,-0.0176 0.0078,0.0176 -0.611328,0.39648 -5.08789,3.37305 0,0.58398 6.74414,0 0,-0.54101 -5.089844,0 -0.728515,0.0117 -0.0098,-0.0195 0.611328,-0.39649 5.216797,-3.48828 0,-0.43945 z m -6.74414,6.40039 0,0.5957 4.30664,0 c 1.365234,0 1.988281,0.62891 1.988281,1.88867 0,1.26758 -0.603515,1.89649 -1.988281,1.89649 l -4.306641,0 0,0.59375 4.306641,0 c 1.806641,0 2.5625,-0.91797 2.5625,-2.49024 0,-1.5664 -0.755859,-2.48242 -2.5625,-2.48242 l -4.306641,0 0,-0.002 z"
     class="st0" /><path
     style="fill:#1d1d1b"
     inkscape:connector-curvature="0"
     id="path15"
     d="m 7.8613281,99.646484 -6.7460937,0 0,1.097656 3.8144531,0 0.71875,-0.0176 0.00781,0.0176 -0.6015625,0.40234 -3.9394531,2.69141 0,1.07617 6.7460938,0 0,-1.10547 -3.984375,0 -0.7285156,0.01 -0.00977,-0.0195 0.611328,-0.40235 4.109375,-2.87695 0,-0.873046 0.00195,0 z m -1.109375,9.369146 -1.8671875,0 0,-2.62696 -1.0195312,0 0,2.62696 -1.625,0 0,-3.09375 -1.125,0.0176 0,4.31836 6.7460938,0 0,-4.45312 -1.1074219,-0.0254 0,3.23633 -0.00195,0 z m 1.109375,2.47851 -6.7460937,0 0,1.23828 2.7070313,0 0,2.74414 -2.7070313,0 0,1.24024 6.7460938,0 0,-1.24024 -2.8964844,0 0,-2.74414 2.8964844,0 0,-1.23828 z M 1.296875,117.58008 C 1.1347656,117.95898 1,118.59766 1,119.14453 c 0,2.10352 1.1503906,3.04883 3.4335938,3.04883 2.4277344,0 3.5507813,-0.95313 3.5507813,-2.97852 0,-0.58398 -0.1601563,-1.2207 -0.375,-1.66211 l -1.0351563,0.14454 c 0.1699219,0.38671 0.2871094,0.83593 0.2871094,1.35742 0,1.32226 -0.5664063,1.83594 -2.4199219,1.83594 -1.7441406,0 -2.2988281,-0.4961 -2.2988281,-1.8086 0,-0.52344 0.1035156,-1.01562 0.2421875,-1.36719 L 1.296875,117.58008 Z m 0.7285156,8 0,-0.0273 0.7011719,-0.18945 2.6347656,-0.81055 0,2.05079 -2.6347656,-0.81836 -0.7011719,-0.20508 z m 5.8359375,-1.79102 0,-1.39258 -6.7460938,2.41797 0,1.48243 6.7460938,2.40234 0,-1.32227 -1.4492188,-0.44922 0,-2.69726 1.4492188,-0.44141 z m -5.8359375,8.52149 0,-0.0274 0.7011719,-0.1875 2.6347656,-0.80859 0,2.04883 -2.6347656,-0.81836 -0.7011719,-0.20703 z m 5.8359375,-1.79102 0,-1.39258 -6.7460938,2.41797 0,1.48633 6.7460938,2.39844 0,-1.32422 -1.4492188,-0.44727 0,-2.69726 1.4492188,-0.44141 z m 0,8.11133 -6.7460937,0 0,1.24023 2.7070313,0 0,2.74219 -2.7070313,0 0,1.24024 6.7460938,0 0,-1.24024 -2.8964844,0 0,-2.74219 2.8964844,0 0,-1.24023 z m -5.59375,6.03516 -1.1523438,0.0254 0,4.30859 6.7460938,0 0,-1.24023 -2.7792968,0 0,-2.57227 -1.0859375,-0.01 0,2.58204 -1.7285157,0 0,-3.09375 z"
     class="st0" /></svg>