<?xml version="1.0" encoding="UTF-8" standalone="no"?>
<!-- Created with Inkscape (http://www.inkscape.org/) -->

<svg
   xmlns:svg="http://www.w3.org/2000/svg"
   xmlns="http://www.w3.org/2000/svg"
   version="1.1"
   width="500pt"
   height="510pt"
   viewBox="0 0 500 510"
   id="svg2">
  <defs
     id="defs35" />
  <g
     id="surface0">
    <path
       d="m -2.390031,-2.389729 4.780875,4.780416 m -4.780875,0 4.780875,-4.780416"
       transform="matrix(3.415301,0,0,-3.409091,249.27596,276.49773)"
       id="path5"
       style="fill:none;stroke:#7d7d7d;stroke-width:0.79701;stroke-linecap:butt;stroke-linejoin:miter;stroke-miterlimit:10;stroke-opacity:1" />
    <path
       d="M 66.472869,4.79167e-4 C 66.472869,36.711833 36.71135,66.473708 4.0625e-4,66.473708 -36.715112,66.473708 -66.472056,36.711833 -66.472056,4.79167e-4 -66.472056,-36.714313 -36.715112,-66.471604 4.0625e-4,-66.471604 36.71135,-66.471604 66.472869,-36.714313 66.472869,4.79167e-4 z m 0,0"
       transform="matrix(3.415301,0,0,-3.409091,249.27596,276.49773)"
       id="path7"
       style="fill:none;stroke:#0000ff;stroke-width:0.79701;stroke-linecap:butt;stroke-linejoin:miter;stroke-miterlimit:10;stroke-opacity:1" />
    <path
       d="m -56.683844,-32.725667 56.6922565,98.194479 56.6945435,-98.194479 -113.3868,0 z m 0,0"
       transform="matrix(3.415301,0,0,-3.409091,249.27596,276.49773)"
       id="path9"
       style="fill:#fdfdfd;fill-opacity:1;fill-rule:nonzero;stroke:#000000;stroke-width:1.49442005;stroke-linecap:butt;stroke-linejoin:miter;stroke-miterlimit:10;stroke-opacity:1" />
    <path
       d="M 31.746331,4.79167e-4 C 31.746331,17.535167 17.535238,31.746937 4.0625e-4,31.746937 -17.534425,31.746937 -31.750094,17.535167 -31.750094,4.79167e-4 -31.750094,-17.534208 -17.534425,-31.749417 4.0625e-4,-31.749417 c 17.53483175,0 31.74592475,14.215209 31.74592475,31.749896167 z m 0,0"
       transform="matrix(3.415301,0,0,-3.409091,249.27596,276.49773)"
       id="path11"
       style="fill:none;stroke:#00ff00;stroke-width:0.79701;stroke-linecap:butt;stroke-linejoin:miter;stroke-miterlimit:10;stroke-opacity:1" />
    <path
       d="m 24.230469,395.78125 c -1.335938,2.23437 -2.667969,2.71484 -4.164063,2.82031 -0.425781,0.0547 -0.746094,0.0547 -0.746094,0.69531 0,0.21094 0.210938,0.3711 0.480469,0.3711 0.90625,0 1.972657,-0.10547 2.878907,-0.10547 1.175781,0 2.351562,0.10547 3.417968,0.10547 0.210938,0 0.640625,0 0.640625,-0.64063 0,-0.37109 -0.269531,-0.42578 -0.535156,-0.42578 -0.746094,-0.0508 -1.601563,-0.3164 -1.601563,-1.17187 0,-0.42578 0.214844,-0.79688 0.480469,-1.27735 l 2.617188,-4.3125 8.535156,0 c 0.05469,0.69141 0.535156,5.32422 0.535156,5.64453 0,1.01172 -1.761719,1.11719 -2.453125,1.11719 -0.480468,0 -0.800781,0 -0.800781,0.69531 0,0.3711 0.371094,0.3711 0.480469,0.3711 1.386718,0 2.828125,-0.10547 4.214844,-0.10547 0.851562,0 3.042968,0.10547 3.894531,0.10547 0.160156,0 0.585937,0 0.585937,-0.69141 0,-0.375 -0.320312,-0.375 -0.800781,-0.375 -2.078125,0 -2.078125,-0.21094 -2.1875,-1.22265 L 37.625,376.17578 c -0.05469,-0.69141 -0.05469,-0.85156 -0.640625,-0.85156 -0.535156,0 -0.695313,0.26562 -0.910156,0.58594 l -11.84375,19.87109 z m 4.109375,-5.00781 6.667968,-11.23828 1.121094,11.23828 -7.789062,0 z m 0,0"
       id="path13"
       style="fill:#000000;fill-opacity:1;fill-rule:nonzero;stroke:none" />
    <path
       d="m 460.39453,397.00391 c -0.32031,1.33203 -0.42578,1.59765 -3.09375,1.59765 -0.58594,0 -0.90625,0 -0.90625,0.69531 0,0.3711 0.32031,0.3711 0.90625,0.3711 l 12.16797,0 c 5.38672,0 9.39062,-3.9961 9.39062,-7.35156 0,-2.44922 -1.97265,-4.42188 -5.28125,-4.79297 3.51954,-0.64063 7.09375,-3.14453 7.09375,-6.39063 0,-2.5039 -2.23828,-4.6875 -6.29687,-4.6875 l -11.47266,0 c -0.64062,0 -0.96093,0 -0.96093,0.69141 0,0.37109 0.32031,0.37109 0.96093,0.37109 0.0547,0 0.69532,0 1.28125,0.0547 0.58594,0.10547 0.90625,0.10547 0.90625,0.58594 0,0.10547 -0.0508,0.21484 -0.10547,0.64062 l -4.58984,18.21485 z m 5.125,-9.80079 2.13281,-8.41406 c 0.32032,-1.17187 0.375,-1.28125 1.81641,-1.28125 l 4.42578,0 c 2.99219,0 3.68359,2.02735 3.68359,3.51563 0,2.98437 -2.93359,6.17968 -7.04296,6.17968 l -5.01563,0 z m -1.49609,11.39844 c -0.48047,0 -0.53125,0 -0.7461,0 -0.375,-0.0508 -0.48047,-0.10547 -0.48047,-0.37109 0,-0.10547 0,-0.16016 0.21485,-0.7461 l 2.34765,-9.48046 6.40235,0 c 3.2539,0 3.94922,2.5039 3.94922,3.9414 0,3.35547 -3.04297,6.65625 -7.09766,6.65625 l -4.58984,0 z m 0,0"
       id="path15"
       style="fill:#000000;fill-opacity:1;fill-rule:nonzero;stroke:none" />
    <path
       d="m 261.8125,17.722656 c 0,-0.109375 -0.0508,-0.375 -0.37109,-0.375 -0.10938,0 -0.16016,0.05469 -0.53516,0.425782 l -2.34766,2.609374 c -0.32031,-0.476562 -1.86718,-3.035156 -5.65625,-3.035156 -7.63281,0 -15.26172,7.511719 -15.26172,15.394532 0,5.59375 4,9.320312 9.23047,9.320312 2.9375,0 5.55078,-1.332031 7.36328,-2.929688 3.14844,-2.769531 3.73829,-5.859374 3.73829,-5.964843 0,-0.371094 -0.375,-0.371094 -0.42969,-0.371094 -0.21094,0 -0.3711,0.105469 -0.42578,0.371094 -0.32032,0.960937 -1.1211,3.410156 -3.46875,5.378906 C 251.30078,40.414062 249.16797,41 247.40625,41 c -3.04297,0 -6.67188,-1.757812 -6.67188,-7.03125 0,-1.972656 0.69532,-7.457031 4.10938,-11.453125 2.08203,-2.398437 5.28516,-4.101563 8.32422,-4.101563 3.46875,0 5.49609,2.609376 5.49609,6.550782 0,1.386718 -0.10547,1.386718 -0.10547,1.757812 0,0.320313 0.375,0.320313 0.48047,0.320313 0.42578,0 0.42578,-0.05469 0.64063,-0.691407 l 2.13281,-8.628906 z m 0,0"
       id="path17"
       style="fill:#000000;fill-opacity:1;fill-rule:nonzero;stroke:none" />
    <path
       d="M 56.702956,-32.725667 -28.336,16.372146"
       transform="matrix(3.415301,0,0,-3.409091,249.27596,276.49773)"
       id="path19"
       style="fill:none;stroke:#7d7d7d;stroke-width:0.3985;stroke-linecap:butt;stroke-linejoin:miter;stroke-miterlimit:10;stroke-opacity:1;stroke-dasharray:2.98883, 2.98883" />
    <path
       d="m 0.0084125,65.468812 0,-98.191041"
       transform="matrix(3.415301,0,0,-3.409091,249.27596,276.49773)"
       id="path21"
       style="fill:none;stroke:#7d7d7d;stroke-width:0.3985;stroke-linecap:butt;stroke-linejoin:miter;stroke-miterlimit:10;stroke-opacity:1;stroke-dasharray:2.98883, 2.98883" />
    <path
       d="m -56.683844,-32.725667 85.0401,49.097813"
       transform="matrix(3.415301,0,0,-3.409091,249.27596,276.49773)"
       id="path23"
       style="fill:none;stroke:#7d7d7d;stroke-width:0.3985;stroke-linecap:butt;stroke-linejoin:miter;stroke-miterlimit:10;stroke-opacity:1;stroke-dasharray:2.98883, 2.98883" />
    <path
       d="m -56.683844,-32.725667 56.6922565,98.194479 56.6945435,-98.194479 -113.3868,0 z m 0,0"
       transform="matrix(3.415301,0,0,-3.409091,249.27596,276.49773)"
       id="path25"
       style="fill:none;stroke:#000000;stroke-width:1.49442005;stroke-linecap:butt;stroke-linejoin:miter;stroke-miterlimit:10;stroke-opacity:1" />
    <path
       d="m 255.44922,401.79297 c -0.58985,0 -1.01563,0 -1.4961,0.42969 -0.58593,0.53125 -0.64062,1.11718 -0.64062,1.32812 0,0.85547 0.64062,1.22656 1.28125,1.22656 0.96094,0 1.86719,-0.85156 1.86719,-2.18359 0,-1.65234 -1.60157,-2.92969 -4,-2.92969 -4.58985,0 -9.125,4.84766 -9.125,9.64063 0,3.08984 1.97265,5.7539 5.54687,5.7539 4.85547,0 7.6875,-3.62109 7.6875,-3.99609 0,-0.21094 -0.16015,-0.48047 -0.375,-0.48047 -0.21484,0 -0.26562,0.10938 -0.48047,0.375 -2.66797,3.35547 -6.40234,3.35547 -6.77734,3.35547 -2.13281,0 -3.09375,-1.65234 -3.09375,-3.73047 0,-1.38281 0.69141,-4.6875 1.86719,-6.76172 1.0664,-1.97265 2.93359,-3.41015 4.80078,-3.41015 1.12109,0 2.45703,0.42578 2.9375,1.38281 z m 0,0"
       id="path27"
       style="fill:#000000;fill-opacity:1;fill-rule:nonzero;stroke:none" />
    <path
       d="m 133.98437,209.25781 c 0,0 0,-0.37109 -0.42578,-0.37109 -0.74609,0 -3.2539,0.26562 -4.16406,0.37109 -0.26562,0 -0.63672,0.0547 -0.63672,0.64063 0,0.42578 0.31641,0.42578 0.85156,0.42578 1.60157,0 1.65625,0.21094 1.65625,0.58594 0,0.21093 -0.26953,1.38281 -0.42968,2.07812 l -2.82813,11.07813 c -0.37109,1.70312 -0.53125,2.28906 -0.53125,3.46093 0,3.19922 1.8125,5.32813 4.32031,5.32813 4.00391,0 8.21875,-5.0586 8.21875,-9.96094 0,-3.08984 -1.8125,-5.43359 -4.53515,-5.43359 -1.54688,0 -2.98828,1.01172 -4.00391,2.02343 l 2.50781,-10.22656 z m -3.14843,12.83985 c 0.16015,-0.7461 0.16015,-0.80079 0.48047,-1.17188 1.65625,-2.1875 3.20312,-2.71875 4.10937,-2.71875 1.22656,0 2.13672,1.01172 2.13672,3.19531 0,2.02344 -1.12109,5.91407 -1.76172,7.19141 -1.12109,2.29297 -2.66797,3.51562 -4.00391,3.51562 -1.17187,0 -2.29296,-0.90625 -2.29296,-3.41015 0,-0.69141 0,-1.32813 0.53125,-3.46094 l 0.80078,-3.14062 z m 0,0"
       id="path29"
       style="fill:#000000;fill-opacity:1;fill-rule:nonzero;stroke:none" />
    <path
       d="m 370.84375,215.16797 c -0.64063,-1.28125 -1.60156,-2.1875 -3.14844,-2.1875 -3.94922,0 -8.16406,5.00781 -8.16406,9.96094 0,3.19921 1.86719,5.43359 4.48047,5.43359 0.69531,0 2.40234,-0.16016 4.42969,-2.55469 0.26562,1.4375 1.49218,2.55469 3.09375,2.55469 1.23046,0 1.97656,-0.79688 2.5625,-1.86328 0.53515,-1.22656 1.01562,-3.30078 1.01562,-3.35547 0,-0.37109 -0.32031,-0.37109 -0.42969,-0.37109 -0.32031,0 -0.37109,0.15625 -0.48047,0.63671 -0.58593,2.1836 -1.17187,4.20704 -2.55859,4.20704 -0.96094,0 -1.01562,-0.90235 -1.01562,-1.54297 0,-0.7461 0.0547,-1.06641 0.42578,-2.5586 0.375,-1.38281 0.42968,-1.75781 0.75,-3.03515 l 1.22656,-4.73828 c 0.21094,-0.96094 0.21094,-1.01563 0.21094,-1.17188 0,-0.58594 -0.3711,-0.90625 -0.95703,-0.90625 -0.85547,0 -1.33594,0.74609 -1.44141,1.49219 z m -2.1875,8.78906 c -0.21484,0.63672 -0.21484,0.69141 -0.69531,1.27734 -1.49219,1.86329 -2.88282,2.39454 -3.84375,2.39454 -1.70703,0 -2.1875,-1.86329 -2.1875,-3.19532 0,-1.70312 1.07031,-5.85937 1.86718,-7.45703 1.07032,-1.96875 2.5625,-3.25 3.94922,-3.25 2.1875,0 2.66797,2.76953 2.66797,2.98438 0,0.21484 -0.0508,0.42578 -0.10547,0.58593 l -1.65234,6.66016 z m 0,0"
       id="path31"
       style="fill:#000000;fill-opacity:1;fill-rule:nonzero;stroke:none" />
  </g>
</svg>
